<svg xmlns="http://www.w3.org/2000/svg" xmlns:xlink="http://www.w3.org/1999/xlink">
<symbol id="sprite">

  <symbol id="double" viewBox="0 0 38 21" fill="none">
    <path d="M28.7534 2.21506L26.4398 0L16.0732 9.93254L18.3868 12.1476L28.7534 2.21506ZM35.6945 0L18.3787 16.5699L11.5602 10.0421L9.24656 12.2572L18.3787 21L38 2.21506L35.6945 0ZM0 12.2572L9.1321 21L11.4458 18.7849L2.31368 10.0421L0 12.2572Z" fill="#011C40"/>
  </symbol>

  <symbol id="city" viewBox="0 0 32 32" fill="none">
    <path d="M7.55404 18.5638L21.9471 8.59494C22.4542 8.24375 23.0659 8.71826 22.8519 9.29672L16.7764 25.717C16.5704 26.2738 15.8135 26.323 15.6136 25.7927L13.6839 20.6718C13.607 20.4677 13.4267 20.3279 13.2099 20.3042L7.77002 19.7088C7.20659 19.6471 7.06601 18.9018 7.55404 18.5638Z" fill="#A7A7A7"/>
    <rect x="0.5" y="0.5" width="31" height="31" rx="15.5" stroke="#A7A7A7"/>
  </symbol>

  <symbol id="heart" viewBox="0 0 15 15" fill="none">
    <path d="M7.5 14.0125L6.4125 13.0225C2.55 9.52 0 7.21 0 4.375C0 2.065 1.815 0.25 4.125 0.25C5.43 0.25 6.6825 0.8575 7.5 1.8175C8.3175 0.8575 9.57 0.25 10.875 0.25C13.185 0.25 15 2.065 15 4.375C15 7.21 12.45 9.52 8.5875 13.03L7.5 14.0125Z" fill="#A7A7A7"/>
  </symbol>

  <symbol id="search" viewBox="0 0 17 17" fill="none">
    <path fill-rule="evenodd" clip-rule="evenodd" d="M1.7 7.64999C1.7 4.3639 4.36391 1.7 7.65001 1.7C10.9361 1.7 13.6 4.3639 13.6 7.64999C13.6 9.25281 12.9662 10.7076 11.9356 11.7774C11.9063 11.7999 11.8781 11.8246 11.8513 11.8515C11.8245 11.8783 11.7998 11.9065 11.7773 11.9358C10.7075 12.9663 9.25274 13.6 7.65001 13.6C4.36391 13.6 1.7 10.9361 1.7 7.64999ZM12.4249 13.6272C11.1162 14.674 9.45622 15.3 7.65001 15.3C3.42502 15.3 0 11.875 0 7.64999C0 3.42502 3.42502 0 7.65001 0C11.875 0 15.3 3.42502 15.3 7.64999C15.3 9.4563 14.674 11.1164 13.627 12.4251L16.7509 15.549C17.0828 15.8809 17.0828 16.4191 16.7509 16.751C16.4189 17.083 15.8807 17.083 15.5488 16.751L12.4249 13.6272Z" fill="#A7A7A7"/>
  </symbol>

</symbol>
</svg>
